<mxfile host="app.diagrams.net" modified="2023-07-12T00:39:57.755Z" agent="Mozilla/5.0 (X11; Ubuntu; Linux x86_64; rv:109.0) Gecko/20100101 Firefox/115.0" etag="1S0dZX3pWGC3iCzg4TS9" version="21.6.2" type="github">
  <diagram name="PÃ¡gina-1" id="vS54wYhkpu-R3U6V1ZRD">
    <mxGraphModel dx="1434" dy="725" grid="1" gridSize="10" guides="1" tooltips="1" connect="1" arrows="1" fold="1" page="1" pageScale="1" pageWidth="827" pageHeight="1169" math="0" shadow="0">
      <root>
        <mxCell id="0" />
        <mxCell id="1" parent="0" />
        <mxCell id="pkA4ZpUU_qlZRxtPL-2b-28" value="Tarefa.h" style="swimlane;fontStyle=0;childLayout=stackLayout;horizontal=1;startSize=26;horizontalStack=0;resizeParent=1;resizeParentMax=0;resizeLast=0;collapsible=1;marginBottom=0;align=center;fontSize=14;" parent="1" vertex="1">
          <mxGeometry x="44" y="870" width="160" height="170" as="geometry" />
        </mxCell>
        <mxCell id="pkA4ZpUU_qlZRxtPL-2b-29" value="&lt;div&gt;nome&lt;/div&gt;&lt;div&gt;complexidade&lt;br&gt;&lt;/div&gt;&lt;div&gt;&lt;br&gt;&lt;/div&gt;&lt;div&gt;&lt;br&gt;&lt;/div&gt;&lt;div&gt;&lt;br&gt;&lt;/div&gt;&lt;div&gt;&lt;br&gt;&lt;/div&gt;" style="text;strokeColor=none;fillColor=none;spacingLeft=4;spacingRight=4;overflow=hidden;rotatable=0;points=[[0,0.5],[1,0.5]];portConstraint=eastwest;fontSize=12;whiteSpace=wrap;html=1;" parent="pkA4ZpUU_qlZRxtPL-2b-28" vertex="1">
          <mxGeometry y="26" width="160" height="30" as="geometry" />
        </mxCell>
        <mxCell id="pkA4ZpUU_qlZRxtPL-2b-30" value="&lt;div&gt;Tarefa()&lt;/div&gt;&lt;div&gt;virtual ~Tarefa()&lt;/div&gt;&lt;div&gt;virtual void imprimir()&lt;/div&gt;&lt;div&gt;virtual int getComplexidade()&lt;/div&gt;&lt;div&gt;virtual std::string getNome()&lt;br&gt;&lt;/div&gt;" style="text;strokeColor=none;fillColor=none;spacingLeft=4;spacingRight=4;overflow=hidden;rotatable=0;points=[[0,0.5],[1,0.5]];portConstraint=eastwest;fontSize=12;whiteSpace=wrap;html=1;" parent="pkA4ZpUU_qlZRxtPL-2b-28" vertex="1">
          <mxGeometry y="56" width="160" height="114" as="geometry" />
        </mxCell>
        <mxCell id="pkA4ZpUU_qlZRxtPL-2b-32" value="" style="endArrow=none;html=1;rounded=0;" parent="1" edge="1">
          <mxGeometry relative="1" as="geometry">
            <mxPoint x="44" y="930" as="sourcePoint" />
            <mxPoint x="204" y="930" as="targetPoint" />
          </mxGeometry>
        </mxCell>
        <mxCell id="pkA4ZpUU_qlZRxtPL-2b-33" value="Coluna.h" style="swimlane;fontStyle=0;childLayout=stackLayout;horizontal=1;startSize=26;horizontalStack=0;resizeParent=1;resizeParentMax=0;resizeLast=0;collapsible=1;marginBottom=0;align=center;fontSize=14;" parent="1" vertex="1">
          <mxGeometry x="374" y="720" width="240" height="230" as="geometry" />
        </mxCell>
        <mxCell id="pkA4ZpUU_qlZRxtPL-2b-34" value="nome" style="text;strokeColor=none;fillColor=none;spacingLeft=4;spacingRight=4;overflow=hidden;rotatable=0;points=[[0,0.5],[1,0.5]];portConstraint=eastwest;fontSize=12;whiteSpace=wrap;html=1;" parent="pkA4ZpUU_qlZRxtPL-2b-33" vertex="1">
          <mxGeometry y="26" width="240" height="30" as="geometry" />
        </mxCell>
        <mxCell id="pkA4ZpUU_qlZRxtPL-2b-35" value="tarefas" style="text;strokeColor=none;fillColor=none;spacingLeft=4;spacingRight=4;overflow=hidden;rotatable=0;points=[[0,0.5],[1,0.5]];portConstraint=eastwest;fontSize=12;whiteSpace=wrap;html=1;" parent="pkA4ZpUU_qlZRxtPL-2b-33" vertex="1">
          <mxGeometry y="56" width="240" height="30" as="geometry" />
        </mxCell>
        <mxCell id="pkA4ZpUU_qlZRxtPL-2b-39" value="" style="line;strokeWidth=1;rotatable=0;dashed=0;labelPosition=right;align=left;verticalAlign=middle;spacingTop=0;spacingLeft=6;points=[];portConstraint=eastwest;" parent="pkA4ZpUU_qlZRxtPL-2b-33" vertex="1">
          <mxGeometry y="86" width="240" height="10" as="geometry" />
        </mxCell>
        <mxCell id="pkA4ZpUU_qlZRxtPL-2b-36" value="void imprimir();&lt;br&gt;void ordenarTarefasPorComplexidade();&lt;br&gt;void ordenarTarefasPorNome();&lt;br&gt;void imprimirOrdenadoPorComplexidade();&lt;br&gt;void imprimirOrdenadoPorNome();&lt;br&gt;void moverTarefa();&lt;br&gt;" style="text;strokeColor=none;fillColor=none;spacingLeft=4;spacingRight=4;overflow=hidden;rotatable=0;points=[[0,0.5],[1,0.5]];portConstraint=eastwest;fontSize=12;whiteSpace=wrap;html=1;" parent="pkA4ZpUU_qlZRxtPL-2b-33" vertex="1">
          <mxGeometry y="96" width="240" height="134" as="geometry" />
        </mxCell>
        <mxCell id="62WXFrzC4N_BZi2lxImG-1" value="TarefaExemplo." style="swimlane;fontStyle=0;childLayout=stackLayout;horizontal=1;startSize=26;horizontalStack=0;resizeParent=1;resizeParentMax=0;resizeLast=0;collapsible=1;marginBottom=0;align=center;fontSize=14;" vertex="1" parent="1">
          <mxGeometry x="54" y="610" width="150" height="170" as="geometry" />
        </mxCell>
        <mxCell id="62WXFrzC4N_BZi2lxImG-2" value="descricao" style="text;strokeColor=none;fillColor=none;spacingLeft=4;spacingRight=4;overflow=hidden;rotatable=0;points=[[0,0.5],[1,0.5]];portConstraint=eastwest;fontSize=12;whiteSpace=wrap;html=1;" vertex="1" parent="62WXFrzC4N_BZi2lxImG-1">
          <mxGeometry y="26" width="150" height="30" as="geometry" />
        </mxCell>
        <mxCell id="62WXFrzC4N_BZi2lxImG-5" value="" style="line;strokeWidth=1;rotatable=0;dashed=0;labelPosition=right;align=left;verticalAlign=middle;spacingTop=0;spacingLeft=6;points=[];portConstraint=eastwest;" vertex="1" parent="62WXFrzC4N_BZi2lxImG-1">
          <mxGeometry y="56" width="150" height="36" as="geometry" />
        </mxCell>
        <mxCell id="62WXFrzC4N_BZi2lxImG-3" value="TarefaExemplo();&lt;br&gt;void imprimir();&lt;br&gt;int getComplexidade();&lt;br&gt;std::string getNome();" style="text;strokeColor=none;fillColor=none;spacingLeft=4;spacingRight=4;overflow=hidden;rotatable=0;points=[[0,0.5],[1,0.5]];portConstraint=eastwest;fontSize=12;whiteSpace=wrap;html=1;" vertex="1" parent="62WXFrzC4N_BZi2lxImG-1">
          <mxGeometry y="92" width="150" height="78" as="geometry" />
        </mxCell>
        <mxCell id="62WXFrzC4N_BZi2lxImG-8" value="A Fazer: public Coluna" style="swimlane;fontStyle=0;childLayout=stackLayout;horizontal=1;startSize=26;horizontalStack=0;resizeParent=1;resizeParentMax=0;resizeLast=0;collapsible=1;marginBottom=0;align=center;fontSize=14;" vertex="1" parent="1">
          <mxGeometry x="254" y="490" width="160" height="86" as="geometry" />
        </mxCell>
        <mxCell id="62WXFrzC4N_BZi2lxImG-9" value="AFazer();" style="text;strokeColor=none;fillColor=none;spacingLeft=4;spacingRight=4;overflow=hidden;rotatable=0;points=[[0,0.5],[1,0.5]];portConstraint=eastwest;fontSize=12;whiteSpace=wrap;html=1;" vertex="1" parent="62WXFrzC4N_BZi2lxImG-8">
          <mxGeometry y="26" width="160" height="30" as="geometry" />
        </mxCell>
        <mxCell id="62WXFrzC4N_BZi2lxImG-10" value="void adicionarTarefa(); " style="text;strokeColor=none;fillColor=none;spacingLeft=4;spacingRight=4;overflow=hidden;rotatable=0;points=[[0,0.5],[1,0.5]];portConstraint=eastwest;fontSize=12;whiteSpace=wrap;html=1;" vertex="1" parent="62WXFrzC4N_BZi2lxImG-8">
          <mxGeometry y="56" width="160" height="30" as="geometry" />
        </mxCell>
        <mxCell id="62WXFrzC4N_BZi2lxImG-12" value="EmAndamento: public Coluna" style="swimlane;fontStyle=0;childLayout=stackLayout;horizontal=1;startSize=26;horizontalStack=0;resizeParent=1;resizeParentMax=0;resizeLast=0;collapsible=1;marginBottom=0;align=center;fontSize=14;" vertex="1" parent="1">
          <mxGeometry x="584" y="510" width="200" height="86" as="geometry" />
        </mxCell>
        <mxCell id="62WXFrzC4N_BZi2lxImG-13" value="EmAndamento();" style="text;strokeColor=none;fillColor=none;spacingLeft=4;spacingRight=4;overflow=hidden;rotatable=0;points=[[0,0.5],[1,0.5]];portConstraint=eastwest;fontSize=12;whiteSpace=wrap;html=1;" vertex="1" parent="62WXFrzC4N_BZi2lxImG-12">
          <mxGeometry y="26" width="200" height="30" as="geometry" />
        </mxCell>
        <mxCell id="62WXFrzC4N_BZi2lxImG-14" value="void adicionarTarefa(); " style="text;strokeColor=none;fillColor=none;spacingLeft=4;spacingRight=4;overflow=hidden;rotatable=0;points=[[0,0.5],[1,0.5]];portConstraint=eastwest;fontSize=12;whiteSpace=wrap;html=1;" vertex="1" parent="62WXFrzC4N_BZi2lxImG-12">
          <mxGeometry y="56" width="200" height="30" as="geometry" />
        </mxCell>
        <mxCell id="62WXFrzC4N_BZi2lxImG-15" value="Aprovacao: public Coluna" style="swimlane;fontStyle=0;childLayout=stackLayout;horizontal=1;startSize=26;horizontalStack=0;resizeParent=1;resizeParentMax=0;resizeLast=0;collapsible=1;marginBottom=0;align=center;fontSize=14;" vertex="1" parent="1">
          <mxGeometry x="304" y="370" width="170" height="90" as="geometry" />
        </mxCell>
        <mxCell id="62WXFrzC4N_BZi2lxImG-16" value="Aprovacao();" style="text;strokeColor=none;fillColor=none;spacingLeft=4;spacingRight=4;overflow=hidden;rotatable=0;points=[[0,0.5],[1,0.5]];portConstraint=eastwest;fontSize=12;whiteSpace=wrap;html=1;" vertex="1" parent="62WXFrzC4N_BZi2lxImG-15">
          <mxGeometry y="26" width="170" height="30" as="geometry" />
        </mxCell>
        <mxCell id="62WXFrzC4N_BZi2lxImG-17" value="void adicionarTarefa(); " style="text;strokeColor=none;fillColor=none;spacingLeft=4;spacingRight=4;overflow=hidden;rotatable=0;points=[[0,0.5],[1,0.5]];portConstraint=eastwest;fontSize=12;whiteSpace=wrap;html=1;" vertex="1" parent="62WXFrzC4N_BZi2lxImG-15">
          <mxGeometry y="56" width="170" height="34" as="geometry" />
        </mxCell>
        <mxCell id="62WXFrzC4N_BZi2lxImG-18" value="Feito: public Coluna" style="swimlane;fontStyle=0;childLayout=stackLayout;horizontal=1;startSize=26;horizontalStack=0;resizeParent=1;resizeParentMax=0;resizeLast=0;collapsible=1;marginBottom=0;align=center;fontSize=14;" vertex="1" parent="1">
          <mxGeometry x="534" y="370" width="160" height="86" as="geometry" />
        </mxCell>
        <mxCell id="62WXFrzC4N_BZi2lxImG-19" value="Feito();" style="text;strokeColor=none;fillColor=none;spacingLeft=4;spacingRight=4;overflow=hidden;rotatable=0;points=[[0,0.5],[1,0.5]];portConstraint=eastwest;fontSize=12;whiteSpace=wrap;html=1;" vertex="1" parent="62WXFrzC4N_BZi2lxImG-18">
          <mxGeometry y="26" width="160" height="30" as="geometry" />
        </mxCell>
        <mxCell id="62WXFrzC4N_BZi2lxImG-20" value="void adicionarTarefa(); " style="text;strokeColor=none;fillColor=none;spacingLeft=4;spacingRight=4;overflow=hidden;rotatable=0;points=[[0,0.5],[1,0.5]];portConstraint=eastwest;fontSize=12;whiteSpace=wrap;html=1;" vertex="1" parent="62WXFrzC4N_BZi2lxImG-18">
          <mxGeometry y="56" width="160" height="30" as="geometry" />
        </mxCell>
        <mxCell id="62WXFrzC4N_BZi2lxImG-21" value="QuadroKanbam.h" style="swimlane;fontStyle=0;childLayout=stackLayout;horizontal=1;startSize=26;horizontalStack=0;resizeParent=1;resizeParentMax=0;resizeLast=0;collapsible=1;marginBottom=0;align=center;fontSize=14;" vertex="1" parent="1">
          <mxGeometry x="424" y="50" width="150" height="170" as="geometry" />
        </mxCell>
        <mxCell id="62WXFrzC4N_BZi2lxImG-22" value="colunas" style="text;strokeColor=none;fillColor=none;spacingLeft=4;spacingRight=4;overflow=hidden;rotatable=0;points=[[0,0.5],[1,0.5]];portConstraint=eastwest;fontSize=12;whiteSpace=wrap;html=1;" vertex="1" parent="62WXFrzC4N_BZi2lxImG-21">
          <mxGeometry y="26" width="150" height="30" as="geometry" />
        </mxCell>
        <mxCell id="62WXFrzC4N_BZi2lxImG-23" value="" style="line;strokeWidth=1;rotatable=0;dashed=0;labelPosition=right;align=left;verticalAlign=middle;spacingTop=0;spacingLeft=6;points=[];portConstraint=eastwest;" vertex="1" parent="62WXFrzC4N_BZi2lxImG-21">
          <mxGeometry y="56" width="150" height="36" as="geometry" />
        </mxCell>
        <mxCell id="62WXFrzC4N_BZi2lxImG-24" value="&lt;div&gt;QuadroKanbam();&lt;/div&gt;&lt;div&gt;~QuadroKanbam();&lt;/div&gt;&lt;div&gt;void adicionarTarefa();&lt;/div&gt;&lt;div&gt;void imprimir();&lt;br&gt;&lt;/div&gt;" style="text;strokeColor=none;fillColor=none;spacingLeft=4;spacingRight=4;overflow=hidden;rotatable=0;points=[[0,0.5],[1,0.5]];portConstraint=eastwest;fontSize=12;whiteSpace=wrap;html=1;" vertex="1" parent="62WXFrzC4N_BZi2lxImG-21">
          <mxGeometry y="92" width="150" height="78" as="geometry" />
        </mxCell>
        <mxCell id="62WXFrzC4N_BZi2lxImG-31" value="" style="endArrow=open;startArrow=circlePlus;endFill=0;startFill=0;endSize=8;html=1;rounded=0;entryX=0.473;entryY=1.038;entryDx=0;entryDy=0;entryPerimeter=0;" edge="1" parent="1" target="62WXFrzC4N_BZi2lxImG-3">
          <mxGeometry width="160" relative="1" as="geometry">
            <mxPoint x="124" y="880" as="sourcePoint" />
            <mxPoint x="274" y="869.5" as="targetPoint" />
          </mxGeometry>
        </mxCell>
        <mxCell id="62WXFrzC4N_BZi2lxImG-32" value="" style="endArrow=open;startArrow=circlePlus;endFill=0;startFill=0;endSize=8;html=1;rounded=0;exitX=0.181;exitY=-0.003;exitDx=0;exitDy=0;exitPerimeter=0;" edge="1" parent="1" source="pkA4ZpUU_qlZRxtPL-2b-33">
          <mxGeometry width="160" relative="1" as="geometry">
            <mxPoint x="314" y="620" as="sourcePoint" />
            <mxPoint x="344" y="580" as="targetPoint" />
          </mxGeometry>
        </mxCell>
        <mxCell id="62WXFrzC4N_BZi2lxImG-33" value="" style="endArrow=open;startArrow=circlePlus;endFill=0;startFill=0;endSize=8;html=1;rounded=0;exitX=0.814;exitY=0.003;exitDx=0;exitDy=0;exitPerimeter=0;entryX=0.645;entryY=1.067;entryDx=0;entryDy=0;entryPerimeter=0;" edge="1" parent="1" source="pkA4ZpUU_qlZRxtPL-2b-33" target="62WXFrzC4N_BZi2lxImG-14">
          <mxGeometry width="160" relative="1" as="geometry">
            <mxPoint x="314" y="620" as="sourcePoint" />
            <mxPoint x="474" y="620" as="targetPoint" />
          </mxGeometry>
        </mxCell>
        <mxCell id="62WXFrzC4N_BZi2lxImG-34" value="" style="endArrow=open;startArrow=circlePlus;endFill=0;startFill=0;endSize=8;html=1;rounded=0;entryX=0.75;entryY=1;entryDx=0;entryDy=0;exitX=0.271;exitY=0.01;exitDx=0;exitDy=0;exitPerimeter=0;" edge="1" parent="1" source="pkA4ZpUU_qlZRxtPL-2b-33" target="62WXFrzC4N_BZi2lxImG-15">
          <mxGeometry width="160" relative="1" as="geometry">
            <mxPoint x="494" y="730" as="sourcePoint" />
            <mxPoint x="474" y="620" as="targetPoint" />
          </mxGeometry>
        </mxCell>
        <mxCell id="62WXFrzC4N_BZi2lxImG-36" value="" style="endArrow=open;startArrow=circlePlus;endFill=0;startFill=0;endSize=8;html=1;rounded=0;" edge="1" parent="1">
          <mxGeometry width="160" relative="1" as="geometry">
            <mxPoint x="534" y="720" as="sourcePoint" />
            <mxPoint x="544" y="460" as="targetPoint" />
          </mxGeometry>
        </mxCell>
        <mxCell id="62WXFrzC4N_BZi2lxImG-37" value="Relation" style="endArrow=open;html=1;endSize=12;startArrow=diamondThin;startSize=14;startFill=0;edgeStyle=orthogonalEdgeStyle;rounded=0;entryX=0;entryY=0.559;entryDx=0;entryDy=0;entryPerimeter=0;" edge="1" parent="1" target="pkA4ZpUU_qlZRxtPL-2b-36">
          <mxGeometry relative="1" as="geometry">
            <mxPoint x="204" y="930" as="sourcePoint" />
            <mxPoint x="364" y="930" as="targetPoint" />
          </mxGeometry>
        </mxCell>
        <mxCell id="62WXFrzC4N_BZi2lxImG-38" value="0..n" style="edgeLabel;resizable=0;html=1;align=left;verticalAlign=top;" connectable="0" vertex="1" parent="62WXFrzC4N_BZi2lxImG-37">
          <mxGeometry x="-1" relative="1" as="geometry" />
        </mxCell>
        <mxCell id="62WXFrzC4N_BZi2lxImG-39" value="1" style="edgeLabel;resizable=0;html=1;align=right;verticalAlign=top;" connectable="0" vertex="1" parent="62WXFrzC4N_BZi2lxImG-37">
          <mxGeometry x="1" relative="1" as="geometry" />
        </mxCell>
        <mxCell id="62WXFrzC4N_BZi2lxImG-42" value="Relation" style="endArrow=open;html=1;endSize=12;startArrow=diamondThin;startSize=14;startFill=0;edgeStyle=orthogonalEdgeStyle;rounded=0;entryX=0.5;entryY=1;entryDx=0;entryDy=0;" edge="1" parent="1" target="62WXFrzC4N_BZi2lxImG-21">
          <mxGeometry relative="1" as="geometry">
            <mxPoint x="499" y="730" as="sourcePoint" />
            <mxPoint x="498.5" y="530" as="targetPoint" />
          </mxGeometry>
        </mxCell>
        <mxCell id="62WXFrzC4N_BZi2lxImG-43" value="0..n" style="edgeLabel;resizable=0;html=1;align=left;verticalAlign=top;" connectable="0" vertex="1" parent="62WXFrzC4N_BZi2lxImG-42">
          <mxGeometry x="-1" relative="1" as="geometry" />
        </mxCell>
        <mxCell id="62WXFrzC4N_BZi2lxImG-44" value="1" style="edgeLabel;resizable=0;html=1;align=right;verticalAlign=top;" connectable="0" vertex="1" parent="62WXFrzC4N_BZi2lxImG-42">
          <mxGeometry x="1" relative="1" as="geometry" />
        </mxCell>
      </root>
    </mxGraphModel>
  </diagram>
</mxfile>
